<svg xmlns="http://www.w3.org/2000/svg" width="519" height="100"><path d="M50.88 70.39c-5.23 13.13-26.67 9.91-26.67-1.48V36.22c0-11.8 21.17-14.48 27.61-2.68l19.56-7.91C63.74 8.75 49.67 3.79 38.01 3.79 18.99 3.79.23 14.78.23 36.22v32.69c0 21.58 18.76 32.43 37.38 32.43 11.93 0 26.27-5.9 34.17-21.31zm53.73-6.17h27.34V100h24.12V5.13h-24.12v35.91h-27.34V5.13H80.49V100h24.12zm113.1-59.09h-21.84L162.77 100h25.73l5.89-19.03h25.33l6.16 19.03h25.73zm-17.96 54.54l6.97-27.74h.67l6.57 27.74zm116.98-31.9V4.99H242.1v22.78h25.19V100h24.25V27.77zm88.18 23.05l-2.68 19.83h-.41l-3.08-19.83-9.78-33.36h-18.22l-10.59 33.23-2.28 19.96h-.67l-2.41-20.1-11.26-45.42h-24.92L346.08 100h22.24l7.51-26.4 3.62-21.57h.4l3.35 21.71 8.44 26.26h22.24l27.34-94.87h-24.79zm41.13-45.69v22.24h38.06l-41 63.79 4.42 8.84h70.35V77.89l-38.59.27 40.87-64.99-5.1-8.04z"/></svg>