<svg version="1.2" xmlns="http://www.w3.org/2000/svg" viewBox="0 0 424 64" width="424" height="64">
	<title>LogoWZ-svg</title>
	<style>
	</style>
	<path id="DANK API" fill="#b8bd7a" aria-label="DANK API"  d="m95.75 31.74q0 5.18-1.94 9.64q-1.87 4.4-5.24 7.7q-3.29 3.23-7.82 5.11q-4.53 1.81-9.77 1.81h-18.76v-48.52h18.76q5.24 0 9.77 1.88q4.53 1.81 7.82 5.11q3.37 3.23 5.24 7.7q1.94 4.4 1.94 9.57zm-13.77 0q0-2.26-0.84-4.46q-0.85-2.2-2.33-3.88q-1.49-1.75-3.5-2.78q-2-1.1-4.33-1.1h-5.56v24.45h5.56q2.33 0 4.33-1.04q2.01-1.1 3.5-2.78q1.48-1.75 2.33-3.94q0.84-2.2 0.84-4.47zm41.46 5.82l-3.88-14.55h-0.26l-3.88 14.55zm5.95 18.44l-2.26-7.18h-15.4l-2.26 7.18h-13.85l17.21-48.52h13.2l17.2 48.52zm59.71 0h-13.26l-14.42-24.65h-0.39l0.26 24.65h-13.2v-48.52h13.2l14.42 24h0.39l-0.26-24h13.26zm51.36 0h-16.81l-10.48-13.52l-3.04 3.82v9.7h-13.27v-48.51h13.27v17.27l0.19 0.06l13.33-17.33h16.81l-18.95 24.26zm47.03-18.44l-3.88-14.56h-0.26l-3.88 14.56zm5.95 18.44l-2.27-7.18h-15.39l-2.26 7.18h-13.85l17.21-48.52h13.2l17.2 48.52zm59.06-30.86q0 3.82-1.42 7.05q-1.42 3.23-3.95 5.63q-2.45 2.33-5.82 3.69q-3.3 1.29-7.11 1.29h-8.87v13.2h-13.19v-48.52h22.06q3.81 0 7.11 1.36q3.37 1.29 5.82 3.69q2.53 2.32 3.95 5.56q1.42 3.23 1.42 7.05zm-13.39 0q0-0.91-0.39-1.88q-0.32-1.03-0.97-1.87q-0.64-0.91-1.55-1.43q-0.9-0.58-2-0.58h-8.87v11.45h8.87q1.1 0 2-0.52q0.91-0.58 1.55-1.42q0.65-0.84 0.97-1.81q0.39-1.03 0.39-1.94zm19.54 30.86v-48.52h13.19v48.52z" />
</svg>