<svg xmlns="http://www.w3.org/2000/svg" viewBox="0 0 1572 270" width="1572" height="270" fill="#05d3fc"><style>tspan { white-space:pre }</style><path d="M137.58 270L216.52 270L156.34 183.98C190.68 167.7 210.5 152.13 216.87 105.76C223.95 47 187.14 19.39 135.46 19.39L35.29 19.39L0.24 270L64.31 270L75.28 190.36L86.61 190.36ZM83.07 135.84L91.21 78.5L128.38 78.5C147.14 78.5 154.57 91.6 152.8 106.82C151.03 121.33 139.71 135.84 120.24 135.84ZM385.72 19.39L328.02 19.39L205.55 270L273.51 270L295.81 219.74L362.71 219.74L372.27 270L440.23 270ZM318.11 163.45L345.72 90.18L348.2 90.18L355.63 163.45ZM554.92 19.39L491.56 19.39L456.51 270L519.87 270ZM717.39 19.39L659.69 19.39L537.22 270L605.18 270L627.48 219.74L694.38 219.74L703.94 270L771.9 270ZM649.78 163.45L677.39 90.18L679.87 90.18L687.3 163.45ZM788.19 270L851.55 270L865.35 169.83L864.64 121.33L866.06 120.98L880.93 171.24L923.76 270L987.83 270L1022.87 19.39L959.86 19.39L943.93 133.01L944.64 176.2L943.23 176.55L929.07 126.29L883.4 19.39L823.23 19.39ZM1253.31 140.09L1238.79 192.48L1237.73 192.48L1237.02 140.09L1223.57 51.95L1175.43 51.95L1135.08 139.74L1121.63 192.48L1120.21 192.48L1120.92 139.38L1108.18 19.39L1042.34 19.39L1079.86 270L1138.62 270L1168 200.27L1185.7 143.28L1186.76 143.28L1187.47 200.62L1200.21 270L1258.97 270L1366.22 19.39L1300.74 19.39ZM1378.26 19.39L1370.12 78.15L1470.65 78.15L1338.97 246.64L1347.46 270L1532.94 270L1541.09 211.59L1438.79 212.3L1571.17 40.63L1563.03 19.39Z" /></svg>